<?xml version="1.0" encoding="UTF-8" standalone="no"?>
<!DOCTYPE svg PUBLIC "-//W3C//DTD SVG 1.1//EN" "http://www.w3.org/Graphics/SVG/1.1/DTD/svg11.dtd">
<svg xmlns="http://www.w3.org/2000/svg" xmlns:xlink="http://www.w3.org/1999/xlink" version="1.1" width="416.362pt" height="119.054pt" viewBox="0 0 416.362 119.054">
<g enable-background="new">
<clipPath id="cp1">
<path transform="matrix(1,0,0,-1,0,119.054)" d="M 0 119.054 L 416.362 119.054 L 416.362 0 L 0 0 Z "/>
</clipPath>
<g clip-path="url(#cp1)">
<path transform="matrix(1,0,0,-1,26.101,37.005899)" d="M 0 0 C .342 -.342 .789 -.513 1.237 -.513 C 1.686 -.513 2.133 -.342 2.475 0 L 34.531 32.056 L 43.437 23.15 C 44.12 22.467 45.228 22.467 45.912 23.15 C 46.595 23.834 46.595 24.942 45.912 25.626 L 34.531 37.006 L 0 2.475 C -.684 1.791 -.684 .684 0 0 " fill="#2fb2fc"/>
<path transform="matrix(1,0,0,-1,35.8603,94.6631)" d="M 0 0 C .449 0 .896 .171 1.238 .513 C 1.921 1.197 1.921 2.305 1.238 2.988 L -30.91 35.136 L -21.868 44.18 C -21.184 44.863 -21.184 45.972 -21.868 46.654 C -22.552 47.339 -23.659 47.339 -24.343 46.654 L -35.86 35.136 L -1.237 .513 C -.896 .171 -.448 0 0 0 " fill="#2fb2fc"/>
<path transform="matrix(1,0,0,-1,95.1167,82.093799)" d="M 0 0 C -.684 .684 -1.792 .684 -2.475 0 L -34.484 -32.01 L -44.536 -21.958 C -45.22 -21.274 -46.328 -21.274 -47.011 -21.958 C -47.695 -22.643 -47.695 -23.75 -47.011 -24.434 L -34.484 -36.96 L 0 -2.476 C .684 -1.792 .684 -.684 0 0 " fill="#2fb2fc"/>
<path transform="matrix(1,0,0,-1,84.1152,23.482499)" d="M 0 0 C -.684 .684 -1.792 .684 -2.476 0 C -3.159 -.684 -3.159 -1.792 -2.476 -2.476 L 31.093 -36.045 L 23.655 -43.482 C 22.972 -44.166 22.972 -45.274 23.655 -45.958 C 23.997 -46.3 24.444 -46.471 24.893 -46.471 C 25.341 -46.471 25.789 -46.3 26.13 -45.958 L 36.043 -36.045 Z " fill="#2fb2fc"/>
<path transform="matrix(1,0,0,-1,0,119.054)" d="M 51.068 44.242 L 44.591 44.242 L 44.591 73.696 L 51.068 73.696 Z "/>
<path transform="matrix(1,0,0,-1,54.8633,50.802804)" d="M 0 0 L 0 5.445 L 24.133 5.445 L 24.133 0 L 15.305 0 L 15.305 -24.009 L 8.828 -24.009 L 8.828 0 Z "/>
<path transform="matrix(1,0,0,-1,135.3169,60.085)" d="M 0 0 C 0 2.146 .316 4.16 .949 6.044 C 1.582 7.928 2.496 9.563 3.692 10.953 C 4.889 12.342 6.359 13.435 8.106 14.232 C 9.853 15.03 11.826 15.429 14.026 15.429 C 15.759 15.429 17.257 15.202 18.522 14.748 C 19.787 14.295 20.854 13.73 21.72 13.057 C 22.586 12.383 23.294 11.647 23.844 10.85 C 24.394 10.052 24.814 9.303 25.103 8.602 C 25.391 7.9 25.59 7.295 25.701 6.786 C 25.81 6.277 25.866 5.995 25.866 5.94 L 24.051 5.94 C 23.858 7.179 23.459 8.285 22.854 9.262 C 22.249 10.237 21.493 11.069 20.585 11.758 C 19.678 12.444 18.667 12.967 17.553 13.325 C 16.439 13.682 15.264 13.861 14.026 13.861 C 12.101 13.861 10.382 13.49 8.87 12.747 C 7.357 12.005 6.078 11.008 5.033 9.757 C 3.988 8.505 3.19 7.04 2.641 5.363 C 2.09 3.686 1.815 1.898 1.815 0 C 1.815 -1.897 2.09 -3.686 2.641 -5.362 C 3.19 -7.04 3.988 -8.505 5.033 -9.756 C 6.078 -11.008 7.357 -12.004 8.87 -12.747 C 10.382 -13.489 12.101 -13.86 14.026 -13.86 C 15.456 -13.86 16.796 -13.565 18.048 -12.974 C 19.299 -12.383 20.393 -11.599 21.328 -10.622 C 22.263 -9.646 23.012 -8.519 23.576 -7.239 C 24.14 -5.961 24.463 -4.634 24.545 -3.259 L 26.361 -3.259 C 26.196 -5.019 25.763 -6.642 25.061 -8.126 C 24.36 -9.611 23.466 -10.897 22.38 -11.983 C 21.293 -13.07 20.035 -13.916 18.605 -14.521 C 17.175 -15.125 15.648 -15.428 14.026 -15.428 C 11.826 -15.428 9.853 -15.029 8.106 -14.231 C 6.359 -13.435 4.889 -12.341 3.692 -10.952 C 2.496 -9.563 1.582 -7.927 .949 -6.043 C .316 -4.16 0 -2.145 0 0 "/>
<path transform="matrix(1,0,0,-1,166.1738,64.21)" d="M 0 0 C 0 -1.266 .179 -2.482 .536 -3.65 C .894 -4.82 1.416 -5.857 2.104 -6.766 C 2.791 -7.673 3.644 -8.395 4.662 -8.931 C 5.679 -9.468 6.848 -9.735 8.168 -9.735 C 9.488 -9.735 10.657 -9.468 11.674 -8.931 C 12.691 -8.395 13.544 -7.673 14.232 -6.766 C 14.919 -5.857 15.442 -4.82 15.8 -3.65 C 16.157 -2.482 16.336 -1.266 16.336 0 C 16.336 1.265 16.157 2.481 15.8 3.651 C 15.442 4.819 14.919 5.858 14.232 6.766 C 13.544 7.673 12.691 8.396 11.674 8.932 C 10.657 9.468 9.488 9.735 8.168 9.735 C 6.848 9.735 5.679 9.468 4.662 8.932 C 3.644 8.396 2.791 7.673 2.104 6.766 C 1.416 5.858 .894 4.819 .536 3.651 C .179 2.481 0 1.265 0 0 M -1.567 0 C -1.567 1.513 -1.355 2.936 -.928 4.27 C -.502 5.604 .124 6.779 .949 7.797 C 1.774 8.814 2.791 9.618 4.001 10.21 C 5.211 10.801 6.601 11.097 8.168 11.097 C 9.736 11.097 11.124 10.801 12.334 10.21 C 13.544 9.618 14.562 8.814 15.387 7.797 C 16.212 6.779 16.837 5.604 17.264 4.27 C 17.69 2.936 17.904 1.513 17.904 0 C 17.904 -1.513 17.69 -2.943 17.264 -4.29 C 16.837 -5.638 16.212 -6.813 15.387 -7.817 C 14.562 -8.821 13.544 -9.619 12.334 -10.21 C 11.124 -10.801 9.736 -11.097 8.168 -11.097 C 6.601 -11.097 5.211 -10.801 4.001 -10.21 C 2.791 -9.619 1.774 -8.821 .949 -7.817 C .124 -6.813 -.502 -5.638 -.928 -4.29 C -1.355 -2.943 -1.567 -1.513 -1.567 0 "/>
<path transform="matrix(1,0,0,-1,188.1611,53.6075)" d="M 0 0 L 1.568 0 L 1.568 -4.538 L 1.65 -4.538 C 1.925 -3.741 2.317 -3.032 2.826 -2.414 C 3.334 -1.795 3.926 -1.266 4.6 -.825 C 5.273 -.386 6.009 -.056 6.807 .164 C 7.604 .385 8.416 .494 9.241 .494 C 10.479 .494 11.53 .343 12.396 .041 C 13.263 -.262 13.971 -.66 14.521 -1.155 C 15.071 -1.65 15.504 -2.207 15.82 -2.826 C 16.136 -3.445 16.363 -4.071 16.501 -4.703 C 16.639 -5.336 16.721 -5.948 16.749 -6.539 C 16.776 -7.131 16.79 -7.646 16.79 -8.086 L 16.79 -21.204 L 15.222 -21.204 L 15.222 -7.797 C 15.222 -7.275 15.181 -6.615 15.099 -5.817 C 15.016 -5.02 14.775 -4.257 14.376 -3.527 C 13.978 -2.799 13.373 -2.173 12.562 -1.65 C 11.75 -1.129 10.629 -.867 9.199 -.867 C 7.989 -.867 6.917 -1.087 5.982 -1.526 C 5.046 -1.967 4.249 -2.579 3.589 -3.362 C 2.929 -4.146 2.427 -5.082 2.083 -6.168 C 1.739 -7.255 1.568 -8.443 1.568 -9.736 L 1.568 -21.204 L 0 -21.204 Z "/>
<path transform="matrix(1,0,0,-1,207.6738,54.968805)" d="M 0 0 L 0 1.361 L 3.795 1.361 L 3.795 5.733 C 3.795 6.477 3.919 7.115 4.167 7.652 C 4.414 8.188 4.75 8.621 5.177 8.951 C 5.604 9.281 6.098 9.529 6.662 9.694 C 7.226 9.859 7.824 9.941 8.457 9.941 C 8.924 9.941 9.543 9.872 10.313 9.735 L 10.313 8.374 C 9.543 8.511 8.924 8.58 8.457 8.58 C 7.576 8.58 6.841 8.38 6.25 7.981 C 5.658 7.583 5.363 6.792 5.363 5.61 L 5.363 1.361 L 9.777 1.361 L 9.777 0 L 5.363 0 L 5.363 -19.843 L 3.795 -19.843 L 3.795 0 Z "/>
<path transform="matrix(1,0,0,-1,0,119.054)" d="M 220.709 65.447 L 222.276 65.447 L 222.276 44.242998 L 220.709 44.242998 Z M 220.709 73.697 L 222.276 73.697 L 222.276 69.448 L 220.709 69.448 Z "/>
<path transform="matrix(1,0,0,-1,236.1792,73.945407)" d="M 0 0 C 1.347 0 2.509 .274 3.486 .825 C 4.462 1.375 5.273 2.104 5.92 3.012 C 6.566 3.919 7.047 4.957 7.364 6.126 C 7.68 7.295 7.838 8.483 7.838 9.694 C 7.838 10.932 7.68 12.135 7.364 13.304 C 7.047 14.473 6.573 15.518 5.94 16.439 C 5.308 17.36 4.49 18.096 3.486 18.646 C 2.482 19.196 1.306 19.471 -.041 19.471 C -1.444 19.471 -2.64 19.203 -3.63 18.667 C -4.62 18.131 -5.439 17.408 -6.084 16.501 C -6.731 15.594 -7.199 14.548 -7.487 13.365 C -7.776 12.183 -7.92 10.959 -7.92 9.694 C -7.92 8.457 -7.763 7.253 -7.446 6.085 C -7.13 4.915 -6.648 3.878 -6.002 2.97 C -5.356 2.063 -4.538 1.341 -3.548 .805 C -2.558 .268 -1.375 0 0 0 M 7.879 3.671 L 7.797 3.671 C 6.917 1.993 5.817 .735 4.497 -.104 C 3.177 -.941 1.568 -1.361 -.33 -1.361 C -1.925 -1.361 -3.3 -1.059 -4.455 -.454 C -5.61 .15 -6.559 .962 -7.302 1.98 C -8.044 2.997 -8.595 4.173 -8.952 5.507 C -9.31 6.841 -9.488 8.236 -9.488 9.694 C -9.488 11.262 -9.296 12.727 -8.911 14.088 C -8.526 15.449 -7.941 16.625 -7.157 17.615 C -6.374 18.604 -5.391 19.389 -4.208 19.966 C -3.025 20.544 -1.636 20.832 -.041 20.832 C .811 20.832 1.65 20.715 2.475 20.481 C 3.3 20.248 4.063 19.911 4.765 19.471 C 5.466 19.031 6.078 18.481 6.601 17.821 C 7.123 17.161 7.521 16.418 7.797 15.594 L 7.879 15.594 L 7.879 28.588 L 9.447 28.588 L 9.447 -.866 L 7.879 -.866 Z "/>
<path transform="matrix(1,0,0,-1,267.2016,63.054704)" d="M 0 0 C -.056 1.155 -.249 2.248 -.579 3.279 C -.91 4.311 -1.399 5.219 -2.047 6.002 C -2.696 6.786 -3.481 7.411 -4.405 7.879 C -5.33 8.347 -6.384 8.58 -7.569 8.58 C -8.838 8.58 -9.955 8.34 -10.92 7.858 C -11.886 7.377 -12.699 6.745 -13.36 5.961 C -14.022 5.177 -14.532 4.263 -14.891 3.218 C -15.249 2.172 -15.47 1.1 -15.553 0 Z M -15.594 -1.361 L -15.594 -1.609 C -15.594 -2.847 -15.429 -4.029 -15.098 -5.156 C -14.767 -6.284 -14.277 -7.274 -13.629 -8.127 C -12.981 -8.979 -12.168 -9.653 -11.189 -10.148 C -10.21 -10.644 -9.073 -10.891 -7.776 -10.891 C -5.653 -10.891 -3.971 -10.334 -2.73 -9.22 C -1.489 -8.106 -.634 -6.56 -.165 -4.579 L 1.402 -4.579 C .935 -7.055 -.076 -8.952 -1.63 -10.272 C -3.184 -11.592 -5.239 -12.252 -7.797 -12.252 C -9.365 -12.252 -10.733 -11.97 -11.902 -11.406 C -13.071 -10.843 -14.047 -10.073 -14.831 -9.097 C -15.614 -8.12 -16.199 -6.965 -16.584 -5.631 C -16.969 -4.298 -17.161 -2.86 -17.161 -1.32 C -17.161 .165 -16.962 1.588 -16.563 2.949 C -16.165 4.311 -15.567 5.507 -14.769 6.538 C -13.971 7.569 -12.974 8.395 -11.778 9.014 C -10.582 9.633 -9.172 9.941 -7.549 9.941 C -6.064 9.941 -4.751 9.667 -3.61 9.117 C -2.469 8.566 -1.513 7.817 -.743 6.868 C .027 5.92 .611 4.819 1.01 3.568 C 1.409 2.316 1.608 .976 1.608 -.454 C 1.608 -.592 1.602 -.75 1.588 -.929 C 1.574 -1.107 1.567 -1.252 1.567 -1.361 Z "/>
<path transform="matrix(1,0,0,-1,272.853,53.6075)" d="M 0 0 L 1.568 0 L 1.568 -4.538 L 1.65 -4.538 C 1.925 -3.741 2.317 -3.032 2.826 -2.414 C 3.334 -1.795 3.926 -1.266 4.6 -.825 C 5.273 -.386 6.009 -.056 6.807 .164 C 7.604 .385 8.416 .494 9.241 .494 C 10.479 .494 11.53 .343 12.396 .041 C 13.263 -.262 13.971 -.66 14.521 -1.155 C 15.071 -1.65 15.504 -2.207 15.82 -2.826 C 16.136 -3.445 16.363 -4.071 16.501 -4.703 C 16.639 -5.336 16.721 -5.948 16.749 -6.539 C 16.776 -7.131 16.79 -7.646 16.79 -8.086 L 16.79 -21.204 L 15.222 -21.204 L 15.222 -7.797 C 15.222 -7.275 15.181 -6.615 15.099 -5.817 C 15.016 -5.02 14.775 -4.257 14.376 -3.527 C 13.978 -2.799 13.373 -2.173 12.562 -1.65 C 11.75 -1.129 10.629 -.867 9.199 -.867 C 7.989 -.867 6.917 -1.087 5.982 -1.526 C 5.046 -1.967 4.249 -2.579 3.589 -3.362 C 2.929 -4.146 2.427 -5.082 2.083 -6.168 C 1.739 -7.255 1.568 -8.443 1.568 -9.736 L 1.568 -21.204 L 0 -21.204 Z "/>
<path transform="matrix(1,0,0,-1,310.6406,60.167)" d="M 0 0 C -.083 .935 -.324 1.76 -.722 2.475 C -1.121 3.189 -1.637 3.781 -2.269 4.249 C -2.902 4.716 -3.637 5.074 -4.476 5.321 C -5.315 5.569 -6.216 5.692 -7.178 5.692 C -8.498 5.692 -9.667 5.425 -10.685 4.889 C -11.702 4.353 -12.555 3.637 -13.242 2.743 C -13.93 1.85 -14.453 .831 -14.81 -.31 C -15.167 -1.451 -15.346 -2.627 -15.346 -3.837 C -15.346 -5.267 -15.181 -6.587 -14.851 -7.797 C -14.521 -9.008 -14.012 -10.06 -13.325 -10.953 C -12.638 -11.847 -11.785 -12.541 -10.767 -13.036 C -9.75 -13.531 -8.553 -13.778 -7.178 -13.778 C -6.188 -13.778 -5.274 -13.613 -4.435 -13.283 C -3.596 -12.953 -2.854 -12.5 -2.207 -11.922 C -1.561 -11.345 -1.031 -10.65 -.619 -9.839 C -.206 -9.028 .068 -8.141 .207 -7.178 L 1.774 -7.178 C 1.609 -8.443 1.265 -9.57 .743 -10.561 C .22 -11.551 -.44 -12.383 -1.237 -13.057 C -2.036 -13.73 -2.943 -14.246 -3.96 -14.604 C -4.978 -14.961 -6.051 -15.14 -7.178 -15.14 C -8.911 -15.14 -10.389 -14.83 -11.613 -14.212 C -12.836 -13.593 -13.84 -12.762 -14.624 -11.716 C -15.408 -10.671 -15.985 -9.468 -16.356 -8.106 C -16.728 -6.745 -16.914 -5.321 -16.914 -3.837 C -16.914 -2.352 -16.701 -.949 -16.274 .371 C -15.848 1.691 -15.222 2.847 -14.397 3.837 C -13.572 4.826 -12.555 5.61 -11.344 6.187 C -10.135 6.766 -8.746 7.054 -7.178 7.054 C -6.023 7.054 -4.944 6.91 -3.939 6.621 C -2.936 6.332 -2.042 5.899 -1.258 5.321 C -.475 4.744 .165 4.008 .66 3.114 C 1.155 2.221 1.458 1.182 1.568 0 Z "/>
<path transform="matrix(1,0,0,-1,332.6699,63.054704)" d="M 0 0 C -.056 1.155 -.249 2.248 -.579 3.279 C -.91 4.311 -1.399 5.219 -2.047 6.002 C -2.696 6.786 -3.481 7.411 -4.405 7.879 C -5.33 8.347 -6.384 8.58 -7.569 8.58 C -8.838 8.58 -9.955 8.34 -10.92 7.858 C -11.886 7.377 -12.699 6.745 -13.36 5.961 C -14.022 5.177 -14.532 4.263 -14.891 3.218 C -15.249 2.172 -15.47 1.1 -15.553 0 Z M -15.594 -1.361 L -15.594 -1.609 C -15.594 -2.847 -15.429 -4.029 -15.098 -5.156 C -14.767 -6.284 -14.277 -7.274 -13.629 -8.127 C -12.981 -8.979 -12.168 -9.653 -11.189 -10.148 C -10.21 -10.644 -9.073 -10.891 -7.776 -10.891 C -5.653 -10.891 -3.971 -10.334 -2.73 -9.22 C -1.489 -8.106 -.634 -6.56 -.165 -4.579 L 1.402 -4.579 C .935 -7.055 -.076 -8.952 -1.63 -10.272 C -3.184 -11.592 -5.239 -12.252 -7.797 -12.252 C -9.365 -12.252 -10.733 -11.97 -11.902 -11.406 C -13.071 -10.843 -14.047 -10.073 -14.831 -9.097 C -15.614 -8.12 -16.199 -6.965 -16.584 -5.631 C -16.969 -4.298 -17.161 -2.86 -17.161 -1.32 C -17.161 .165 -16.962 1.588 -16.563 2.949 C -16.165 4.311 -15.567 5.507 -14.769 6.538 C -13.971 7.569 -12.974 8.395 -11.778 9.014 C -10.582 9.633 -9.172 9.941 -7.549 9.941 C -6.064 9.941 -4.751 9.667 -3.61 9.117 C -2.469 8.566 -1.513 7.817 -.743 6.868 C .027 5.92 .611 4.819 1.01 3.568 C 1.409 2.316 1.608 .976 1.608 -.454 C 1.608 -.592 1.602 -.75 1.588 -.929 C 1.574 -1.107 1.567 -1.252 1.567 -1.361 Z "/>
<path transform="matrix(1,0,0,-1,366.6201,63.7969)" d="M 0 0 L -6.312 16.666 L -6.394 16.666 L -12.953 0 Z M -7.384 18.439 L -5.404 18.439 L 6.229 -11.015 L 4.291 -11.015 L .578 -1.568 L -13.531 -1.568 L -17.285 -11.015 L -19.224 -11.015 Z "/>
<path transform="matrix(1,0,0,-1,385.3486,44.656305)" d="M 0 0 L 1.691 0 L -11.427 -30.856 L -13.118 -30.856 Z "/>
<path transform="matrix(1,0,0,-1,408.7387,53.7725)" d="M 0 0 C -.056 1.265 -.324 2.364 -.805 3.3 C -1.286 4.234 -1.939 5.019 -2.764 5.651 C -3.589 6.283 -4.573 6.758 -5.713 7.074 C -6.855 7.391 -8.1 7.549 -9.447 7.549 C -10.272 7.549 -11.159 7.452 -12.108 7.26 C -13.057 7.067 -13.937 6.73 -14.748 6.249 C -15.56 5.768 -16.227 5.121 -16.749 4.311 C -17.271 3.499 -17.533 2.488 -17.533 1.278 C -17.533 .096 -17.244 -.867 -16.666 -1.609 C -16.089 -2.352 -15.333 -2.95 -14.397 -3.403 C -13.462 -3.857 -12.39 -4.223 -11.18 -4.497 C -9.97 -4.772 -8.746 -5.033 -7.508 -5.281 C -6.244 -5.528 -5.012 -5.824 -3.816 -6.168 C -2.62 -6.512 -1.547 -6.979 -.598 -7.57 C .351 -8.162 1.114 -8.932 1.691 -9.881 C 2.269 -10.829 2.558 -12.02 2.558 -13.449 C 2.558 -14.989 2.228 -16.281 1.567 -17.326 C .908 -18.372 .075 -19.225 -.928 -19.884 C -1.933 -20.544 -3.046 -21.019 -4.27 -21.308 C -5.494 -21.597 -6.669 -21.74 -7.797 -21.74 C -9.529 -21.74 -11.152 -21.555 -12.665 -21.184 C -14.177 -20.812 -15.498 -20.208 -16.625 -19.368 C -17.753 -18.53 -18.64 -17.45 -19.286 -16.13 C -19.932 -14.811 -20.242 -13.201 -20.214 -11.304 L -18.399 -11.304 C -18.481 -12.927 -18.248 -14.295 -17.697 -15.408 C -17.147 -16.522 -16.384 -17.437 -15.408 -18.151 C -14.432 -18.867 -13.284 -19.383 -11.963 -19.698 C -10.643 -20.015 -9.255 -20.173 -7.797 -20.173 C -6.917 -20.173 -5.975 -20.063 -4.971 -19.843 C -3.967 -19.623 -3.046 -19.252 -2.207 -18.729 C -1.369 -18.207 -.667 -17.52 -.103 -16.667 C .46 -15.814 .743 -14.742 .743 -13.449 C .743 -12.211 .454 -11.2 -.124 -10.417 C -.701 -9.633 -1.464 -9.001 -2.414 -8.52 C -3.362 -8.038 -4.435 -7.652 -5.631 -7.364 C -6.828 -7.075 -8.059 -6.808 -9.323 -6.56 C -10.561 -6.312 -11.785 -6.023 -12.995 -5.693 C -14.205 -5.363 -15.278 -4.917 -16.212 -4.353 C -17.147 -3.789 -17.904 -3.061 -18.481 -2.166 C -19.059 -1.272 -19.348 -.124 -19.348 1.278 C -19.348 2.681 -19.052 3.884 -18.46 4.888 C -17.87 5.892 -17.099 6.703 -16.15 7.322 C -15.202 7.94 -14.136 8.395 -12.954 8.684 C -11.771 8.972 -10.602 9.116 -9.447 9.116 C -7.907 9.116 -6.47 8.944 -5.136 8.601 C -3.802 8.257 -2.634 7.721 -1.629 6.992 C -.626 6.263 .178 5.321 .784 4.166 C 1.388 3.011 1.732 1.622 1.815 0 Z "/>
</g>
</g>
</svg>